<?xml version="1.0" encoding="UTF-8" standalone="no"?>
<!DOCTYPE svg PUBLIC "-//W3C//DTD SVG 1.1//EN"
 "http://www.w3.org/Graphics/SVG/1.1/DTD/svg11.dtd">
<!-- Generated by graphviz version 11.0.0 (20240428.1522)
 -->
<!-- Title: calls Pages: 1 -->
<svg width="985pt" height="637pt"
 viewBox="0.00 0.00 984.89 636.95" xmlns="http://www.w3.org/2000/svg" xmlns:xlink="http://www.w3.org/1999/xlink">
<g id="graph0" class="graph" transform="scale(1 1) rotate(0) translate(4 632.95)">
<title>calls</title>
<polygon fill="white" stroke="none" points="-4,4 -4,-632.95 980.89,-632.95 980.89,4 -4,4"/>
<!-- __evict_server -->
<g id="node1" class="node">
<title>__evict_server</title>
<ellipse fill="none" stroke="black" cx="785.79" cy="-486.88" rx="67.73" ry="18"/>
<text text-anchor="start" x="744.17" y="-482.83" font-family="Times,serif" font-weight="bold" font-size="14.00">__evict_server</text>
</g>
<!-- __evict_clear_all_walks -->
<g id="node8" class="node">
<title>__evict_clear_all_walks</title>
<ellipse fill="none" stroke="black" cx="563.79" cy="-350.48" rx="104.07" ry="18"/>
<text text-anchor="start" x="495.54" y="-346.43" font-family="Times,serif" font-weight="bold" font-size="14.00">__evict_clear_all_walks</text>
</g>
<!-- __evict_server&#45;&gt;__evict_clear_all_walks -->
<g id="edge4" class="edge">
<title>__evict_server&#45;&gt;__evict_clear_all_walks</title>
<path fill="none" stroke="black" d="M759.46,-469.94C720.16,-446.15 646.02,-401.26 601.14,-374.09"/>
<polygon fill="black" stroke="black" points="603.15,-371.21 592.78,-369.03 599.53,-377.2 603.15,-371.21"/>
</g>
<!-- __evict_pass -->
<g id="node9" class="node">
<title>__evict_pass</title>
<ellipse fill="none" stroke="black" cx="785.79" cy="-350.48" rx="60.05" ry="18"/>
<text text-anchor="start" x="749.79" y="-346.43" font-family="Times,serif" font-weight="bold" font-size="14.00">__evict_pass</text>
</g>
<!-- __evict_server&#45;&gt;__evict_pass -->
<g id="edge7" class="edge">
<title>__evict_server&#45;&gt;__evict_pass</title>
<path fill="none" stroke="black" d="M785.79,-468.59C785.79,-446.21 785.79,-406.91 785.79,-380.06"/>
<polygon fill="black" stroke="black" points="789.29,-380.22 785.79,-370.22 782.29,-380.22 789.29,-380.22"/>
</g>
<!-- __evict_thread_run -->
<g id="node2" class="node">
<title>__evict_thread_run</title>
<ellipse fill="none" stroke="black" cx="785.79" cy="-593.6" rx="188.97" ry="35.36"/>
<text text-anchor="start" x="729.17" y="-602.3" font-family="Times,serif" font-weight="bold" font-size="14.00">__evict_thread_run</text>
<text text-anchor="start" x="660.17" y="-574.3" font-family="Times,serif" font-size="14.00" fill="#666666">__wt_spin_trylock(&amp;cache&#45;&gt;evict_pass_lock)</text>
</g>
<!-- __evict_thread_run&#45;&gt;__evict_server -->
<g id="edge1" class="edge">
<title>__evict_thread_run&#45;&gt;__evict_server</title>
<path fill="none" stroke="black" d="M785.79,-558.02C785.79,-544.57 785.79,-529.34 785.79,-516.51"/>
<polygon fill="black" stroke="black" points="789.29,-516.61 785.79,-506.61 782.29,-516.61 789.29,-516.61"/>
</g>
<!-- __evict_thread_stop -->
<g id="node3" class="node">
<title>__evict_thread_stop</title>
<ellipse fill="none" stroke="black" cx="517.79" cy="-486.88" rx="182.61" ry="35.36"/>
<text text-anchor="start" x="459.67" y="-495.58" font-family="Times,serif" font-weight="bold" font-size="14.00">__evict_thread_stop</text>
<text text-anchor="start" x="396.67" y="-467.58" font-family="Times,serif" font-size="14.00" fill="#666666">WT_WITH_PASS_LOCK(evict_pass_lock)</text>
</g>
<!-- __evict_thread_stop&#45;&gt;__evict_clear_all_walks -->
<g id="edge6" class="edge">
<title>__evict_thread_stop&#45;&gt;__evict_clear_all_walks</title>
<path fill="none" stroke="black" d="M529.64,-451.27C537.28,-428.96 547.08,-400.32 554.22,-379.45"/>
<polygon fill="black" stroke="black" points="557.47,-380.77 557.39,-370.17 550.85,-378.5 557.47,-380.77"/>
</g>
<!-- __evict_walk -->
<g id="node4" class="node">
<title>__evict_walk</title>
<ellipse fill="none" stroke="black" cx="785.79" cy="-107.36" rx="191.1" ry="35.36"/>
<text text-anchor="start" x="748.29" y="-116.06" font-family="Times,serif" font-weight="bold" font-size="14.00">__evict_walk</text>
<text text-anchor="start" x="658.67" y="-88.06" font-family="Times,serif" font-size="14.00" fill="#666666">__wt_spin_trylock(&amp;cache&#45;&gt;evict_walk_lock)</text>
</g>
<!-- __evict_walk_tree -->
<g id="node5" class="node">
<title>__evict_walk_tree</title>
<ellipse fill="none" stroke="black" cx="785.79" cy="-18" rx="82.06" ry="18"/>
<text text-anchor="start" x="733.67" y="-13.95" font-family="Times,serif" font-weight="bold" font-size="14.00">__evict_walk_tree</text>
</g>
<!-- __evict_walk&#45;&gt;__evict_walk_tree -->
<g id="edge2" class="edge">
<title>__evict_walk&#45;&gt;__evict_walk_tree</title>
<path fill="none" stroke="black" d="M785.79,-71.58C785.79,-63.59 785.79,-55.18 785.79,-47.49"/>
<polygon fill="black" stroke="black" points="789.29,-47.67 785.79,-37.67 782.29,-47.67 789.29,-47.67"/>
</g>
<!-- __wt_evict_file_exclusive_on -->
<g id="node6" class="node">
<title>__wt_evict_file_exclusive_on</title>
<ellipse fill="none" stroke="black" cx="220.79" cy="-350.48" rx="220.79" ry="65.05"/>
<text text-anchor="start" x="137.92" y="-380.18" font-family="Times,serif" font-weight="bold" font-size="14.00">__wt_evict_file_exclusive_on</text>
<text text-anchor="start" x="72.67" y="-352.18" font-family="Times,serif" font-size="14.00" fill="#666666">__wt_spin_lock(&amp;cache&#45;&gt;evict_walk_lock)</text>
<text text-anchor="start" x="72.67" y="-338.18" font-family="Times,serif" font-size="14.00" fill="#666666">WT_WITH_PASS_LOCK(evict_pass_lock)</text>
<text text-anchor="start" x="72.67" y="-324.18" font-family="Times,serif" font-size="14.00" fill="#666666">__wt_spin_lock(&amp;cache&#45;&gt;evict_queue_lock)</text>
<text text-anchor="start" x="72.67" y="-310.18" font-family="Times,serif" font-size="14.00" fill="#666666">__wt_spin_lock(&amp;cache&#45;&gt;evict_queues[q].evict_lock)</text>
</g>
<!-- __evict_clear_walk -->
<g id="node7" class="node">
<title>__evict_clear_walk</title>
<ellipse fill="none" stroke="black" cx="372.79" cy="-214.07" rx="86.15" ry="18"/>
<text text-anchor="start" x="317.67" y="-210.02" font-family="Times,serif" font-weight="bold" font-size="14.00">__evict_clear_walk</text>
</g>
<!-- __wt_evict_file_exclusive_on&#45;&gt;__evict_clear_walk -->
<g id="edge3" class="edge">
<title>__wt_evict_file_exclusive_on&#45;&gt;__evict_clear_walk</title>
<path fill="none" stroke="black" d="M289.68,-288.56C309.25,-271.26 329.45,-253.4 345.03,-239.61"/>
<polygon fill="black" stroke="black" points="347.33,-242.25 352.51,-233.01 342.7,-237.01 347.33,-242.25"/>
</g>
<!-- __evict_clear_all_walks&#45;&gt;__evict_clear_walk -->
<g id="edge5" class="edge">
<title>__evict_clear_all_walks&#45;&gt;__evict_clear_walk</title>
<path fill="none" stroke="black" d="M539.99,-332.72C506.16,-308.91 444.03,-265.2 405.78,-238.28"/>
<polygon fill="black" stroke="black" points="408.03,-235.58 397.84,-232.69 404,-241.31 408.03,-235.58"/>
</g>
<!-- __evict_lru_walk -->
<g id="node10" class="node">
<title>__evict_lru_walk</title>
<ellipse fill="none" stroke="black" cx="785.79" cy="-214.07" rx="158.22" ry="35.36"/>
<text text-anchor="start" x="736.29" y="-222.77" font-family="Times,serif" font-weight="bold" font-size="14.00">__evict_lru_walk</text>
<text text-anchor="start" x="681.92" y="-194.77" font-family="Times,serif" font-size="14.00" fill="#666666">__wt_spin_lock(&amp;queue&#45;&gt;evict_lock)</text>
</g>
<!-- __evict_pass&#45;&gt;__evict_lru_walk -->
<g id="edge8" class="edge">
<title>__evict_pass&#45;&gt;__evict_lru_walk</title>
<path fill="none" stroke="black" d="M785.79,-332.18C785.79,-314.31 785.79,-285.64 785.79,-261.15"/>
<polygon fill="black" stroke="black" points="789.29,-261.4 785.79,-251.4 782.29,-261.4 789.29,-261.4"/>
</g>
<!-- __evict_lru_walk&#45;&gt;__evict_walk -->
<g id="edge9" class="edge">
<title>__evict_lru_walk&#45;&gt;__evict_walk</title>
<path fill="none" stroke="black" d="M785.79,-178.49C785.79,-170.72 785.79,-162.35 785.79,-154.2"/>
<polygon fill="black" stroke="black" points="789.29,-154.41 785.79,-144.41 782.29,-154.41 789.29,-154.41"/>
</g>
</g>
</svg>
